<svg xmlns="http://www.w3.org/2000/svg" xmlns:xlink="http://www.w3.org/1999/xlink" width="500" zoomAndPan="magnify" viewBox="0 0 375 374.999991" height="500" preserveAspectRatio="xMidYMid meet" version="1.0"><defs><filter x="0%" y="0%" width="100%" height="100%" id="9daf78ea54"><feColorMatrix values="0 0 0 0 1 0 0 0 0 1 0 0 0 0 1 0 0 0 1 0" color-interpolation-filters="sRGB"/></filter><g/><mask id="6225f3f5cc"><g filter="url(#9daf78ea54)"><rect x="-37.5" width="450" fill="#000000" y="-37.499999" height="449.999989" fill-opacity="0.59"/></g></mask><clipPath id="13e9f7d30f"><path d="M 0.527344 0.171875 L 134.519531 0.171875 L 134.519531 134.238281 L 0.527344 134.238281 Z M 0.527344 0.171875 " clip-rule="nonzero"/></clipPath><clipPath id="dc7940938c"><rect x="0" width="135" y="0" height="135"/></clipPath></defs><g mask="url(#6225f3f5cc)"><g transform="matrix(1, 0, 0, 1, 15, 118)"><g clip-path="url(#dc7940938c)"><path fill="#38b6ff" d="M 67.457031 40.996094 C 53.046875 40.996094 41.34375 52.699219 41.34375 67.109375 C 41.34375 81.523438 53.046875 93.222656 67.457031 93.222656 C 81.871094 93.222656 93.574219 81.523438 93.574219 67.109375 C 93.574219 52.707031 81.871094 40.996094 67.457031 40.996094 Z M 67.457031 40.996094 " fill-opacity="1" fill-rule="nonzero"/><path fill="#38b6ff" d="M 67.457031 27.394531 C 45.542969 27.394531 27.734375 45.207031 27.734375 67.121094 C 27.734375 89.035156 45.542969 106.84375 67.457031 106.84375 C 89.371094 106.84375 107.183594 89.035156 107.183594 67.121094 C 107.183594 45.207031 89.371094 27.394531 67.457031 27.394531 Z M 67.457031 99.09375 C 49.828125 99.09375 35.484375 84.75 35.484375 67.121094 C 35.484375 49.488281 49.828125 35.144531 67.457031 35.144531 C 85.089844 35.144531 99.433594 49.488281 99.433594 67.121094 C 99.433594 84.75 85.097656 99.09375 67.457031 99.09375 Z M 67.457031 99.09375 " fill-opacity="1" fill-rule="nonzero"/><path fill="#38b6ff" d="M 67.457031 13.785156 C 38.050781 13.785156 14.136719 37.703125 14.136719 67.109375 C 14.136719 96.519531 38.050781 120.433594 67.457031 120.433594 C 96.867188 120.433594 120.78125 96.519531 120.78125 67.109375 C 120.792969 37.703125 96.875 13.785156 67.457031 13.785156 Z M 67.457031 115.082031 C 41.003906 115.082031 19.484375 93.5625 19.484375 67.109375 C 19.484375 40.65625 41.011719 19.148438 67.457031 19.148438 C 93.914062 19.148438 115.429688 40.664062 115.429688 67.121094 C 115.429688 93.574219 93.914062 115.082031 67.457031 115.082031 Z M 67.457031 115.082031 " fill-opacity="1" fill-rule="nonzero"/><g clip-path="url(#13e9f7d30f)"><path fill="#38b6ff" d="M 67.457031 0.175781 C 30.546875 0.175781 0.527344 30.199219 0.527344 67.109375 C 0.527344 104.019531 30.546875 134.042969 67.457031 134.042969 C 104.371094 134.042969 134.390625 104.019531 134.390625 67.109375 C 134.402344 30.199219 104.371094 0.175781 67.457031 0.175781 Z M 67.457031 131.070312 C 32.1875 131.070312 3.5 102.378906 3.5 67.109375 C 3.5 31.839844 32.1875 3.148438 67.457031 3.148438 C 102.726562 3.148438 131.417969 31.839844 131.417969 67.109375 C 131.417969 102.378906 102.726562 131.070312 67.457031 131.070312 Z M 67.457031 131.070312 " fill-opacity="1" fill-rule="nonzero"/></g></g></g></g><path stroke-linecap="butt" transform="matrix(0.75, 0, 0, 0.75, 49.442677, 166.124989)" fill="none" stroke-linejoin="miter" d="M 4.086847 8.26564 L 12.534764 8.26564 C 16.26914 8.26564 19.352473 9.000015 21.784765 10.468765 C 24.227474 11.937515 26.003515 13.833349 27.118099 16.156266 C 28.237891 18.468766 28.795182 20.932308 28.795182 23.541683 C 28.795182 26.4271 28.123307 28.968766 26.76914 31.161475 C 25.420182 33.354183 23.618099 35.041684 21.357682 36.223975 C 19.097265 37.406267 16.633723 38.000017 13.967056 38.000017 L 4.086847 38.000017 Z M 13.11289 33.421892 C 15.232681 33.421892 17.102473 33.031267 18.727473 32.244808 C 20.347265 31.45835 21.61289 30.291683 22.524348 28.755225 C 23.435807 27.213558 23.888932 25.3646 23.888932 23.213558 C 23.888932 20.875016 23.388932 18.921891 22.39414 17.359391 C 21.404557 15.791682 20.138932 14.640641 18.597265 13.911474 C 17.060806 13.17189 15.477473 12.802099 13.847265 12.802099 L 8.862889 12.802099 L 8.862889 33.421892 Z M 42.545183 34.531267 C 43.821225 34.531267 45.1181 34.08335 46.425392 33.182308 L 48.508725 36.572934 C 47.58685 37.14585 46.592058 37.598975 45.529558 37.942725 C 44.46185 38.281267 43.446225 38.447934 42.467058 38.447934 C 40.477475 38.447934 38.758725 38.0521 37.300391 37.260434 C 35.847266 36.468767 34.727474 35.385434 33.951433 34.000017 C 33.175391 32.6146 32.784766 31.015642 32.784766 29.213558 C 32.784766 27.526058 33.222266 25.973975 34.092058 24.557308 C 34.961849 23.145849 36.144141 22.026058 37.638933 21.197933 C 39.144141 20.369808 40.779558 19.953141 42.545183 19.953141 C 44.888933 19.953141 46.831642 20.640641 48.378517 22.015641 C 49.935809 23.385433 50.972267 25.322933 51.487892 27.828141 L 38.1806 32.328142 C 38.638933 33.031267 39.248308 33.578142 40.013933 33.963558 C 40.779558 34.338558 41.623308 34.531267 42.545183 34.531267 Z M 42.175391 23.541683 C 40.732683 23.541683 39.560808 24.046891 38.64935 25.057308 C 37.737891 26.062516 37.279558 27.369808 37.279558 28.973975 C 37.279558 29.276058 37.295183 29.505225 37.321224 29.666683 L 46.383725 26.442725 C 46.034767 25.598975 45.513933 24.906266 44.831642 24.359391 C 44.14935 23.812516 43.269142 23.541683 42.175391 23.541683 Z M 61.164976 38.369809 C 59.831643 38.369809 58.571226 38.135434 57.388934 37.661475 C 56.206642 37.182309 55.232684 36.505225 54.467059 35.625017 L 56.383726 33.0521 C 57.821226 34.468767 59.295184 35.1771 60.800393 35.1771 C 61.618101 35.1771 62.284768 35.02085 62.810809 34.70835 C 63.342059 34.39585 63.607685 33.9271 63.607685 33.3021 C 63.607685 32.651058 63.336851 32.161475 62.789976 31.838558 C 62.253518 31.505225 61.649351 31.2396 60.977476 31.041683 C 60.310809 30.83335 59.883726 30.703142 59.691018 30.651058 C 58.196226 30.187517 57.081642 29.510433 56.342059 28.625016 C 55.607684 27.744808 55.243101 26.703141 55.243101 25.505225 C 55.243101 24.552099 55.482684 23.656266 55.951434 22.822933 C 56.430601 21.994808 57.154559 21.322933 58.118101 20.812516 C 59.086851 20.291683 60.269143 20.031266 61.654559 20.031266 C 62.956643 20.031266 64.09206 20.182308 65.055601 20.479183 C 66.024351 20.781266 66.93581 21.255224 67.77956 21.906266 L 66.024351 24.651058 C 65.52956 24.182308 64.93581 23.812516 64.237893 23.541683 C 63.545185 23.270849 62.914976 23.135433 62.342059 23.135433 C 61.638934 23.135433 61.055601 23.296891 60.586851 23.619808 C 60.128518 23.947933 59.899351 24.369808 59.899351 24.890641 C 59.873309 25.515641 60.102476 25.984391 60.586851 26.3021 C 61.081643 26.6146 61.873309 26.947933 62.961851 27.3021 C 63.420184 27.432308 63.722268 27.531266 63.857685 27.588558 C 65.222268 28.02085 66.284768 28.625016 67.039976 29.406266 C 67.805601 30.182308 68.18581 31.197933 68.18581 32.447933 C 68.18581 34.135433 67.581643 35.541684 66.37331 36.671892 C 65.159768 37.8021 63.425393 38.369809 61.164976 38.369809 Z M 61.164976 38.369809 " stroke="#bfbfbf" stroke-width="3.063105" stroke-opacity="1" stroke-miterlimit="4"/><g fill="#ffffff" fill-opacity="1"><g transform="translate(49.442677, 194.624987)"><g><path d="M 3.0625 -22.296875 L 9.40625 -22.296875 C 12.195312 -22.296875 14.503906 -21.742188 16.328125 -20.640625 C 18.160156 -19.535156 19.492188 -18.113281 20.328125 -16.375 C 21.171875 -14.644531 21.59375 -12.800781 21.59375 -10.84375 C 21.59375 -8.675781 21.085938 -6.769531 20.078125 -5.125 C 19.066406 -3.488281 17.710938 -2.222656 16.015625 -1.328125 C 14.316406 -0.441406 12.46875 0 10.46875 0 L 3.0625 0 Z M 9.828125 -3.4375 C 11.421875 -3.4375 12.820312 -3.726562 14.03125 -4.3125 C 15.25 -4.90625 16.203125 -5.78125 16.890625 -6.9375 C 17.578125 -8.09375 17.921875 -9.476562 17.921875 -11.09375 C 17.921875 -12.84375 17.546875 -14.300781 16.796875 -15.46875 C 16.054688 -16.644531 15.109375 -17.507812 13.953125 -18.0625 C 12.796875 -18.613281 11.601562 -18.890625 10.375 -18.890625 L 6.640625 -18.890625 L 6.640625 -3.4375 Z M 9.828125 -3.4375 "/></g></g></g><g fill="#ffffff" fill-opacity="1"><g transform="translate(72.745387, 194.624987)"><g><path d="M 8.609375 -2.609375 C 9.566406 -2.609375 10.535156 -2.941406 11.515625 -3.609375 L 13.078125 -1.078125 C 12.378906 -0.640625 11.628906 -0.289062 10.828125 -0.03125 C 10.035156 0.21875 9.273438 0.34375 8.546875 0.34375 C 7.054688 0.34375 5.765625 0.046875 4.671875 -0.546875 C 3.578125 -1.140625 2.738281 -1.957031 2.15625 -3 C 1.570312 -4.039062 1.28125 -5.234375 1.28125 -6.578125 C 1.28125 -7.847656 1.609375 -9.015625 2.265625 -10.078125 C 2.921875 -11.140625 3.804688 -11.976562 4.921875 -12.59375 C 6.046875 -13.21875 7.273438 -13.53125 8.609375 -13.53125 C 10.359375 -13.53125 11.816406 -13.015625 12.984375 -11.984375 C 14.148438 -10.953125 14.925781 -9.5 15.3125 -7.625 L 5.328125 -4.25 C 5.671875 -3.71875 6.128906 -3.3125 6.703125 -3.03125 C 7.273438 -2.75 7.910156 -2.609375 8.609375 -2.609375 Z M 8.328125 -10.84375 C 7.242188 -10.84375 6.359375 -10.460938 5.671875 -9.703125 C 4.992188 -8.953125 4.65625 -7.972656 4.65625 -6.765625 C 4.65625 -6.546875 4.664062 -6.375 4.6875 -6.25 L 11.484375 -8.671875 C 11.222656 -9.296875 10.835938 -9.8125 10.328125 -10.21875 C 9.816406 -10.632812 9.148438 -10.84375 8.328125 -10.84375 Z M 8.328125 -10.84375 "/></g></g></g><g fill="#ffffff" fill-opacity="1"><g transform="translate(89.066469, 194.624987)"><g><path d="M 6.25 0.28125 C 5.25 0.28125 4.300781 0.101562 3.40625 -0.25 C 2.519531 -0.613281 1.789062 -1.125 1.21875 -1.78125 L 2.671875 -3.703125 C 3.742188 -2.640625 4.84375 -2.109375 5.96875 -2.109375 C 6.582031 -2.109375 7.085938 -2.222656 7.484375 -2.453125 C 7.878906 -2.691406 8.078125 -3.046875 8.078125 -3.515625 C 8.078125 -4.003906 7.875 -4.367188 7.46875 -4.609375 C 7.0625 -4.859375 6.609375 -5.0625 6.109375 -5.21875 C 5.609375 -5.375 5.285156 -5.472656 5.140625 -5.515625 C 4.015625 -5.859375 3.175781 -6.363281 2.625 -7.03125 C 2.082031 -7.695312 1.8125 -8.476562 1.8125 -9.375 C 1.8125 -10.082031 1.988281 -10.75 2.34375 -11.375 C 2.695312 -12 3.234375 -12.503906 3.953125 -12.890625 C 4.679688 -13.273438 5.566406 -13.46875 6.609375 -13.46875 C 7.585938 -13.46875 8.441406 -13.351562 9.171875 -13.125 C 9.898438 -12.90625 10.578125 -12.550781 11.203125 -12.0625 L 9.890625 -10.015625 C 9.523438 -10.359375 9.082031 -10.628906 8.5625 -10.828125 C 8.039062 -11.035156 7.566406 -11.140625 7.140625 -11.140625 C 6.609375 -11.140625 6.164062 -11.015625 5.8125 -10.765625 C 5.46875 -10.523438 5.296875 -10.210938 5.296875 -9.828125 C 5.273438 -9.359375 5.445312 -9.003906 5.8125 -8.765625 C 6.1875 -8.535156 6.78125 -8.289062 7.59375 -8.03125 C 7.9375 -7.925781 8.160156 -7.851562 8.265625 -7.8125 C 9.285156 -7.476562 10.082031 -7.019531 10.65625 -6.4375 C 11.226562 -5.863281 11.515625 -5.109375 11.515625 -4.171875 C 11.515625 -2.898438 11.0625 -1.835938 10.15625 -0.984375 C 9.25 -0.140625 7.945312 0.28125 6.25 0.28125 Z M 6.25 0.28125 "/></g></g></g><g fill="#000000" fill-opacity="1"><g transform="translate(101.975966, 194.624987)"><g><path d="M 6.5 -13.390625 L 6.5 0 L 2.203125 0 L 2.203125 -13.390625 Z M 2.109375 -18.140625 C 2.109375 -18.742188 2.347656 -19.253906 2.828125 -19.671875 C 3.304688 -20.097656 3.851562 -20.3125 4.46875 -20.3125 C 5.0625 -20.3125 5.59375 -20.097656 6.0625 -19.671875 C 6.53125 -19.253906 6.765625 -18.742188 6.765625 -18.140625 C 6.765625 -17.523438 6.53125 -17.007812 6.0625 -16.59375 C 5.59375 -16.1875 5.0625 -15.984375 4.46875 -15.984375 C 3.851562 -15.984375 3.304688 -16.1875 2.828125 -16.59375 C 2.347656 -17.007812 2.109375 -17.523438 2.109375 -18.140625 Z M 2.109375 -18.140625 "/></g></g></g><g fill="#000000" fill-opacity="1"><g transform="translate(110.672377, 194.624987)"><g><path d="M 17.1875 -13.390625 L 17.1875 0 C 17.1875 1.269531 16.820312 2.414062 16.09375 3.4375 C 15.363281 4.46875 14.378906 5.273438 13.140625 5.859375 C 11.910156 6.441406 10.570312 6.734375 9.125 6.734375 C 8.019531 6.734375 7.050781 6.597656 6.21875 6.328125 C 5.394531 6.066406 4.734375 5.773438 4.234375 5.453125 C 3.734375 5.128906 3.140625 4.679688 2.453125 4.109375 L 4.96875 1.15625 C 5.570312 1.726562 6.175781 2.175781 6.78125 2.5 C 7.382812 2.832031 8.144531 3 9.0625 3 C 10.144531 3 11.050781 2.726562 11.78125 2.1875 C 12.519531 1.644531 12.890625 0.894531 12.890625 -0.0625 L 12.890625 -1.953125 C 12.484375 -1.265625 11.851562 -0.703125 11 -0.265625 C 10.15625 0.160156 9.125 0.375 7.90625 0.375 C 6.695312 0.375 5.578125 0.0625 4.546875 -0.5625 C 3.515625 -1.1875 2.691406 -2.046875 2.078125 -3.140625 C 1.460938 -4.234375 1.15625 -5.441406 1.15625 -6.765625 C 1.15625 -8.117188 1.476562 -9.351562 2.125 -10.46875 C 2.769531 -11.59375 3.617188 -12.472656 4.671875 -13.109375 C 5.722656 -13.742188 6.832031 -14.0625 8 -14.0625 C 9.09375 -14.0625 10.066406 -13.898438 10.921875 -13.578125 C 11.785156 -13.265625 12.441406 -12.851562 12.890625 -12.34375 L 13.234375 -13.390625 Z M 9.1875 -3.125 C 10.90625 -3.125 12.140625 -3.796875 12.890625 -5.140625 L 12.890625 -8.421875 C 12.609375 -9.078125 12.132812 -9.597656 11.46875 -9.984375 C 10.800781 -10.367188 10.039062 -10.5625 9.1875 -10.5625 C 8.144531 -10.5625 7.265625 -10.210938 6.546875 -9.515625 C 5.835938 -8.828125 5.484375 -7.953125 5.484375 -6.890625 C 5.484375 -5.828125 5.835938 -4.929688 6.546875 -4.203125 C 7.265625 -3.484375 8.144531 -3.125 9.1875 -3.125 Z M 9.1875 -3.125 "/></g></g></g><g fill="#000000" fill-opacity="1"><g transform="translate(130.055577, 194.624987)"><g><path d="M 11.515625 -14.03125 C 12.773438 -14.03125 13.828125 -13.648438 14.671875 -12.890625 C 15.523438 -12.140625 15.960938 -11.179688 15.984375 -10.015625 L 15.984375 0 L 11.703125 0 L 11.703125 -8.421875 C 11.640625 -9.722656 10.984375 -10.375 9.734375 -10.375 C 8.753906 -10.375 7.96875 -9.914062 7.375 -9 C 6.789062 -8.082031 6.5 -6.898438 6.5 -5.453125 L 6.5 0 L 2.203125 0 L 2.203125 -13.390625 L 6.09375 -13.390625 L 6.40625 -11.234375 C 6.894531 -12.117188 7.570312 -12.804688 8.4375 -13.296875 C 9.300781 -13.785156 10.328125 -14.03125 11.515625 -14.03125 Z M 11.515625 -14.03125 "/></g></g></g><g fill="#000000" fill-opacity="1"><g transform="translate(148.244552, 194.624987)"><g><path d="M 9.734375 -22.546875 C 12.492188 -22.546875 14.628906 -21.863281 16.140625 -20.5 C 17.648438 -19.144531 18.40625 -17.289062 18.40625 -14.9375 C 18.40625 -13.59375 18.144531 -12.332031 17.625 -11.15625 C 17.101562 -9.988281 16.253906 -9.023438 15.078125 -8.265625 C 13.910156 -7.515625 12.394531 -7.140625 10.53125 -7.140625 L 7.34375 -7.140625 L 7.34375 0 L 2.90625 0 L 2.90625 -22.546875 Z M 10.5 -11.453125 C 11.34375 -11.453125 12.019531 -11.640625 12.53125 -12.015625 C 13.039062 -12.398438 13.40625 -12.847656 13.625 -13.359375 C 13.851562 -13.867188 13.96875 -14.359375 13.96875 -14.828125 C 13.96875 -15.617188 13.734375 -16.382812 13.265625 -17.125 C 12.796875 -17.875 11.882812 -18.25 10.53125 -18.25 L 7.34375 -18.25 L 7.34375 -11.453125 Z M 10.5 -11.453125 "/></g></g></g><g fill="#000000" fill-opacity="1"><g transform="translate(167.719614, 194.624987)"><g><path d="M 15.6875 -13.390625 L 15.6875 0 L 11.796875 0 L 11.484375 -2.140625 C 11.015625 -1.285156 10.351562 -0.609375 9.5 -0.109375 C 8.65625 0.390625 7.660156 0.640625 6.515625 0.640625 C 5.296875 0.640625 4.273438 0.265625 3.453125 -0.484375 C 2.640625 -1.242188 2.222656 -2.207031 2.203125 -3.375 L 2.203125 -13.390625 L 6.5 -13.390625 L 6.5 -4.96875 C 6.550781 -3.65625 7.148438 -3 8.296875 -3 C 9.234375 -3 9.984375 -3.457031 10.546875 -4.375 C 11.109375 -5.289062 11.390625 -6.476562 11.390625 -7.9375 L 11.390625 -13.390625 Z M 15.6875 -13.390625 "/></g></g></g><g fill="#000000" fill-opacity="1"><g transform="translate(185.60238, 194.624987)"><g><path d="M 6.5 -24.15625 L 6.5 0 L 2.203125 0 L 2.203125 -24.15625 Z M 6.5 -24.15625 "/></g></g></g><g fill="#000000" fill-opacity="1"><g transform="translate(194.29879, 194.624987)"><g><path d="M 6.546875 0.28125 C 5.453125 0.28125 4.421875 0.0859375 3.453125 -0.296875 C 2.492188 -0.691406 1.703125 -1.234375 1.078125 -1.921875 L 2.84375 -4.28125 C 4.03125 -3.1875 5.144531 -2.640625 6.1875 -2.640625 C 6.738281 -2.640625 7.179688 -2.722656 7.515625 -2.890625 C 7.859375 -3.066406 8.03125 -3.328125 8.03125 -3.671875 C 8.03125 -4.078125 7.832031 -4.390625 7.4375 -4.609375 C 7.050781 -4.828125 6.617188 -5.003906 6.140625 -5.140625 C 5.660156 -5.285156 5.335938 -5.378906 5.171875 -5.421875 C 4.015625 -5.785156 3.148438 -6.328125 2.578125 -7.046875 C 2.003906 -7.773438 1.71875 -8.613281 1.71875 -9.5625 C 1.71875 -10.269531 1.90625 -10.960938 2.28125 -11.640625 C 2.65625 -12.328125 3.238281 -12.890625 4.03125 -13.328125 C 4.832031 -13.773438 5.828125 -14 7.015625 -14 C 8.117188 -14 9.054688 -13.882812 9.828125 -13.65625 C 10.609375 -13.4375 11.351562 -13.070312 12.0625 -12.5625 L 10.4375 -10.046875 C 10.03125 -10.367188 9.578125 -10.632812 9.078125 -10.84375 C 8.578125 -11.0625 8.125 -11.171875 7.71875 -11.171875 C 7.226562 -11.171875 6.828125 -11.066406 6.515625 -10.859375 C 6.210938 -10.660156 6.0625 -10.421875 6.0625 -10.140625 C 6.039062 -9.710938 6.21875 -9.390625 6.59375 -9.171875 C 6.976562 -8.953125 7.566406 -8.734375 8.359375 -8.515625 C 8.484375 -8.472656 8.609375 -8.429688 8.734375 -8.390625 C 8.867188 -8.347656 9.007812 -8.304688 9.15625 -8.265625 C 11.257812 -7.578125 12.3125 -6.3125 12.3125 -4.46875 C 12.3125 -3.613281 12.097656 -2.828125 11.671875 -2.109375 C 11.242188 -1.398438 10.59375 -0.820312 9.71875 -0.375 C 8.851562 0.0625 7.796875 0.28125 6.546875 0.28125 Z M 6.546875 0.28125 "/></g></g></g><g fill="#000000" fill-opacity="1"><g transform="translate(207.98645, 194.624987)"><g><path d="M 8.875 -3.28125 C 9.738281 -3.28125 10.628906 -3.578125 11.546875 -4.171875 L 13.4375 -0.984375 C 12.707031 -0.578125 11.929688 -0.25 11.109375 0 C 10.296875 0.25 9.523438 0.375 8.796875 0.375 C 7.203125 0.375 5.828125 0.0703125 4.671875 -0.53125 C 3.515625 -1.132812 2.640625 -1.984375 2.046875 -3.078125 C 1.453125 -4.171875 1.15625 -5.421875 1.15625 -6.828125 C 1.15625 -8.140625 1.5 -9.34375 2.1875 -10.4375 C 2.875 -11.539062 3.804688 -12.414062 4.984375 -13.0625 C 6.171875 -13.707031 7.46875 -14.03125 8.875 -14.03125 C 10.800781 -14.03125 12.378906 -13.46875 13.609375 -12.34375 C 14.847656 -11.21875 15.648438 -9.613281 16.015625 -7.53125 L 6.21875 -4.40625 C 6.875 -3.65625 7.757812 -3.28125 8.875 -3.28125 Z M 8.546875 -10.6875 C 7.585938 -10.6875 6.820312 -10.359375 6.25 -9.703125 C 5.675781 -9.054688 5.390625 -8.179688 5.390625 -7.078125 L 5.390625 -6.796875 L 11.265625 -8.796875 C 10.835938 -10.054688 9.929688 -10.6875 8.546875 -10.6875 Z M 8.546875 -10.6875 "/></g></g></g><g fill="#000000" fill-opacity="1"><g transform="translate(224.919951, 194.624987)"><g/></g></g><g fill="#000000" fill-opacity="1"><g transform="translate(234.871836, 194.624987)"><g><path d="M 14.9375 -17.09375 C 12.976562 -18.175781 11.273438 -18.71875 9.828125 -18.71875 C 8.847656 -18.71875 8.085938 -18.519531 7.546875 -18.125 C 7.003906 -17.738281 6.734375 -17.160156 6.734375 -16.390625 C 6.734375 -15.671875 7.125 -15.039062 7.90625 -14.5 C 8.695312 -13.957031 9.75 -13.441406 11.0625 -12.953125 C 12.113281 -12.566406 13.019531 -12.125 13.78125 -11.625 C 14.539062 -11.125 15.171875 -10.429688 15.671875 -9.546875 C 16.171875 -8.671875 16.421875 -7.5625 16.421875 -6.21875 C 16.421875 -5.050781 16.117188 -3.972656 15.515625 -2.984375 C 14.910156 -1.992188 14.023438 -1.207031 12.859375 -0.625 C 11.691406 -0.0390625 10.304688 0.25 8.703125 0.25 C 7.347656 0.25 6.003906 0.0507812 4.671875 -0.34375 C 3.347656 -0.75 2.117188 -1.359375 0.984375 -2.171875 L 2.9375 -5.640625 C 3.71875 -5.066406 4.609375 -4.59375 5.609375 -4.21875 C 6.609375 -3.851562 7.503906 -3.671875 8.296875 -3.671875 C 9.234375 -3.671875 10.050781 -3.867188 10.75 -4.265625 C 11.445312 -4.671875 11.796875 -5.320312 11.796875 -6.21875 C 11.796875 -7.382812 10.703125 -8.394531 8.515625 -9.25 C 7.222656 -9.757812 6.148438 -10.25 5.296875 -10.71875 C 4.441406 -11.1875 3.703125 -11.859375 3.078125 -12.734375 C 2.453125 -13.617188 2.140625 -14.722656 2.140625 -16.046875 C 2.140625 -17.984375 2.773438 -19.546875 4.046875 -20.734375 C 5.328125 -21.921875 7.03125 -22.5625 9.15625 -22.65625 C 10.832031 -22.65625 12.226562 -22.46875 13.34375 -22.09375 C 14.46875 -21.71875 15.5625 -21.179688 16.625 -20.484375 Z M 14.9375 -17.09375 "/></g></g></g><g fill="#000000" fill-opacity="1"><g transform="translate(252.723976, 194.624987)"><g><path d="M 7.75 -19.265625 L 7.75 -13.4375 L 11 -13.4375 L 11 -10.109375 L 7.75 -10.109375 L 7.75 0 L 3.453125 0 L 3.453125 -10.109375 L 1.375 -10.109375 L 1.375 -13.4375 L 3.453125 -13.4375 L 3.453125 -19.265625 Z M 7.75 -19.265625 "/></g></g></g><g fill="#000000" fill-opacity="1"><g transform="translate(264.788715, 194.624987)"><g><path d="M 15.6875 -13.390625 L 15.6875 0 L 11.796875 0 L 11.484375 -2.140625 C 11.015625 -1.285156 10.351562 -0.609375 9.5 -0.109375 C 8.65625 0.390625 7.660156 0.640625 6.515625 0.640625 C 5.296875 0.640625 4.273438 0.265625 3.453125 -0.484375 C 2.640625 -1.242188 2.222656 -2.207031 2.203125 -3.375 L 2.203125 -13.390625 L 6.5 -13.390625 L 6.5 -4.96875 C 6.550781 -3.65625 7.148438 -3 8.296875 -3 C 9.234375 -3 9.984375 -3.457031 10.546875 -4.375 C 11.109375 -5.289062 11.390625 -6.476562 11.390625 -7.9375 L 11.390625 -13.390625 Z M 15.6875 -13.390625 "/></g></g></g><g fill="#000000" fill-opacity="1"><g transform="translate(282.67148, 194.624987)"><g><path d="M 16.90625 -24.15625 L 16.90625 0 L 12.625 0 L 12.625 -1.40625 C 11.070312 -0.21875 9.414062 0.375 7.65625 0.375 C 6.40625 0.375 5.289062 0.078125 4.3125 -0.515625 C 3.332031 -1.109375 2.5625 -1.957031 2 -3.0625 C 1.4375 -4.164062 1.15625 -5.460938 1.15625 -6.953125 C 1.15625 -8.421875 1.457031 -9.691406 2.0625 -10.765625 C 2.664062 -11.835938 3.5 -12.65625 4.5625 -13.21875 C 5.625 -13.78125 6.835938 -14.0625 8.203125 -14.0625 C 9.085938 -14.0625 9.914062 -13.921875 10.6875 -13.640625 C 11.46875 -13.367188 12.117188 -12.96875 12.640625 -12.4375 L 12.640625 -24.15625 Z M 9.0625 -3.25 C 9.914062 -3.25 10.628906 -3.414062 11.203125 -3.75 C 11.773438 -4.082031 12.25 -4.585938 12.625 -5.265625 L 12.625 -8.546875 C 12.375 -9.203125 11.929688 -9.722656 11.296875 -10.109375 C 10.660156 -10.492188 9.914062 -10.6875 9.0625 -10.6875 C 8.101562 -10.6875 7.269531 -10.335938 6.5625 -9.640625 C 5.863281 -8.953125 5.515625 -8.078125 5.515625 -7.015625 C 5.515625 -6.316406 5.675781 -5.675781 6 -5.09375 C 6.332031 -4.507812 6.765625 -4.054688 7.296875 -3.734375 C 7.835938 -3.410156 8.425781 -3.25 9.0625 -3.25 Z M 9.0625 -3.25 "/></g></g></g><g fill="#000000" fill-opacity="1"><g transform="translate(301.779084, 194.624987)"><g><path d="M 6.5 -13.390625 L 6.5 0 L 2.203125 0 L 2.203125 -13.390625 Z M 2.109375 -18.140625 C 2.109375 -18.742188 2.347656 -19.253906 2.828125 -19.671875 C 3.304688 -20.097656 3.851562 -20.3125 4.46875 -20.3125 C 5.0625 -20.3125 5.59375 -20.097656 6.0625 -19.671875 C 6.53125 -19.253906 6.765625 -18.742188 6.765625 -18.140625 C 6.765625 -17.523438 6.53125 -17.007812 6.0625 -16.59375 C 5.59375 -16.1875 5.0625 -15.984375 4.46875 -15.984375 C 3.851562 -15.984375 3.304688 -16.1875 2.828125 -16.59375 C 2.347656 -17.007812 2.109375 -17.523438 2.109375 -18.140625 Z M 2.109375 -18.140625 "/></g></g></g><g fill="#000000" fill-opacity="1"><g transform="translate(310.475495, 194.624987)"><g><path d="M 1.15625 -6.859375 C 1.15625 -8.222656 1.476562 -9.445312 2.125 -10.53125 C 2.769531 -11.613281 3.675781 -12.46875 4.84375 -13.09375 C 6.019531 -13.71875 7.351562 -14.03125 8.84375 -14.03125 C 10.34375 -14.03125 11.65625 -13.71875 12.78125 -13.09375 C 13.914062 -12.46875 14.789062 -11.613281 15.40625 -10.53125 C 16.019531 -9.445312 16.328125 -8.222656 16.328125 -6.859375 C 16.328125 -5.492188 16.019531 -4.257812 15.40625 -3.15625 C 14.789062 -2.050781 13.914062 -1.1875 12.78125 -0.5625 C 11.65625 0.0625 10.328125 0.375 8.796875 0.375 C 7.296875 0.375 5.96875 0.0820312 4.8125 -0.5 C 3.664062 -1.082031 2.769531 -1.914062 2.125 -3 C 1.476562 -4.082031 1.15625 -5.367188 1.15625 -6.859375 Z M 5.484375 -6.828125 C 5.484375 -5.765625 5.785156 -4.878906 6.390625 -4.171875 C 7.003906 -3.472656 7.785156 -3.125 8.734375 -3.125 C 9.710938 -3.125 10.5 -3.46875 11.09375 -4.15625 C 11.695312 -4.851562 12 -5.742188 12 -6.828125 C 12 -7.910156 11.695312 -8.796875 11.09375 -9.484375 C 10.5 -10.179688 9.710938 -10.53125 8.734375 -10.53125 C 7.785156 -10.53125 7.003906 -10.175781 6.390625 -9.46875 C 5.785156 -8.769531 5.484375 -7.890625 5.484375 -6.828125 Z M 5.484375 -6.828125 "/></g></g></g></svg>